<mxfile host="65bd71144e">
    <diagram name="Page-1" id="3TuFJ_Ghya5M9YoRuehY">
        <mxGraphModel dx="1497" dy="1688" grid="1" gridSize="10" guides="1" tooltips="1" connect="1" arrows="1" fold="1" page="1" pageScale="1" pageWidth="850" pageHeight="1100" background="none" math="1" shadow="1">
            <root>
                <mxCell id="0"/>
                <mxCell id="1" parent="0"/>
                <mxCell id="_Rgd6yO3huk8bGWKfiVj-23" style="edgeStyle=none;rounded=0;orthogonalLoop=1;jettySize=auto;html=1;exitX=1;exitY=0.5;exitDx=0;exitDy=0;entryX=0.025;entryY=0.363;entryDx=0;entryDy=0;entryPerimeter=0;" parent="1" source="_Rgd6yO3huk8bGWKfiVj-1" target="_Rgd6yO3huk8bGWKfiVj-19" edge="1">
                    <mxGeometry relative="1" as="geometry"/>
                </mxCell>
                <mxCell id="_Rgd6yO3huk8bGWKfiVj-24" style="edgeStyle=none;rounded=0;orthogonalLoop=1;jettySize=auto;html=1;exitX=1;exitY=0.5;exitDx=0;exitDy=0;entryX=0.038;entryY=0.288;entryDx=0;entryDy=0;entryPerimeter=0;" parent="1" source="_Rgd6yO3huk8bGWKfiVj-1" target="_Rgd6yO3huk8bGWKfiVj-17" edge="1">
                    <mxGeometry relative="1" as="geometry"/>
                </mxCell>
                <mxCell id="_Rgd6yO3huk8bGWKfiVj-25" style="edgeStyle=none;rounded=0;orthogonalLoop=1;jettySize=auto;html=1;exitX=1;exitY=0.5;exitDx=0;exitDy=0;entryX=0.15;entryY=0.075;entryDx=0;entryDy=0;entryPerimeter=0;" parent="1" source="_Rgd6yO3huk8bGWKfiVj-1" target="_Rgd6yO3huk8bGWKfiVj-21" edge="1">
                    <mxGeometry relative="1" as="geometry"/>
                </mxCell>
                <mxCell id="_Rgd6yO3huk8bGWKfiVj-1" value="&lt;font style=&quot;font-size: 20px;&quot;&gt;$$\eta$$&lt;/font&gt;" style="ellipse;whiteSpace=wrap;html=1;aspect=fixed;" parent="1" vertex="1">
                    <mxGeometry x="390" y="155" width="80" height="80" as="geometry"/>
                </mxCell>
                <mxCell id="_Rgd6yO3huk8bGWKfiVj-27" style="edgeStyle=none;rounded=0;orthogonalLoop=1;jettySize=auto;html=1;exitX=1;exitY=0.5;exitDx=0;exitDy=0;entryX=0;entryY=0.5;entryDx=0;entryDy=0;" parent="1" source="_Rgd6yO3huk8bGWKfiVj-2" target="_Rgd6yO3huk8bGWKfiVj-18" edge="1">
                    <mxGeometry relative="1" as="geometry"/>
                </mxCell>
                <mxCell id="_Rgd6yO3huk8bGWKfiVj-2" value="&#10;&lt;span style=&quot;color: rgb(0, 0, 0); font-family: Helvetica; font-size: 20px; font-style: normal; font-variant-ligatures: normal; font-variant-caps: normal; font-weight: 400; letter-spacing: normal; orphans: 2; text-align: center; text-indent: 0px; text-transform: none; widows: 2; word-spacing: 0px; -webkit-text-stroke-width: 0px; background-color: rgb(251, 251, 251); text-decoration-thickness: initial; text-decoration-style: initial; text-decoration-color: initial; float: none; display: inline !important;&quot;&gt;$$k$$&lt;/span&gt;&#10;&#10;" style="ellipse;whiteSpace=wrap;html=1;aspect=fixed;" parent="1" vertex="1">
                    <mxGeometry x="390" y="430" width="80" height="80" as="geometry"/>
                </mxCell>
                <mxCell id="_Rgd6yO3huk8bGWKfiVj-26" style="edgeStyle=none;rounded=0;orthogonalLoop=1;jettySize=auto;html=1;exitX=1;exitY=0;exitDx=0;exitDy=0;entryX=0;entryY=0.5;entryDx=0;entryDy=0;" parent="1" source="_Rgd6yO3huk8bGWKfiVj-3" target="_Rgd6yO3huk8bGWKfiVj-19" edge="1">
                    <mxGeometry relative="1" as="geometry"/>
                </mxCell>
                <mxCell id="_Rgd6yO3huk8bGWKfiVj-3" value="&lt;font style=&quot;&quot;&gt;&lt;font style=&quot;font-size: 20px;&quot;&gt;$$r_s$$&lt;br&gt;&lt;/font&gt;&lt;/font&gt;" style="ellipse;whiteSpace=wrap;html=1;aspect=fixed;" parent="1" vertex="1">
                    <mxGeometry x="390" y="310" width="80" height="80" as="geometry"/>
                </mxCell>
                <mxCell id="10" style="edgeStyle=none;html=1;fontSize=18;exitX=1.006;exitY=0.425;exitDx=0;exitDy=0;exitPerimeter=0;" parent="1" source="_Rgd6yO3huk8bGWKfiVj-4" target="9" edge="1">
                    <mxGeometry relative="1" as="geometry">
                        <mxPoint x="990" y="400" as="sourcePoint"/>
                    </mxGeometry>
                </mxCell>
                <mxCell id="22" style="edgeStyle=none;html=1;exitX=0.681;exitY=0.019;exitDx=0;exitDy=0;entryX=0;entryY=1;entryDx=0;entryDy=0;fontSize=16;exitPerimeter=0;" parent="1" source="_Rgd6yO3huk8bGWKfiVj-4" target="20" edge="1">
                    <mxGeometry relative="1" as="geometry"/>
                </mxCell>
                <mxCell id="_Rgd6yO3huk8bGWKfiVj-4" value="&lt;h2&gt;E&lt;/h2&gt;" style="ellipse;whiteSpace=wrap;html=1;aspect=fixed;" parent="1" vertex="1">
                    <mxGeometry x="900" y="365" width="80" height="80" as="geometry"/>
                </mxCell>
                <mxCell id="_Rgd6yO3huk8bGWKfiVj-10" style="edgeStyle=orthogonalEdgeStyle;rounded=0;orthogonalLoop=1;jettySize=auto;html=1;exitX=1;exitY=0.5;exitDx=0;exitDy=0;entryX=0;entryY=0.5;entryDx=0;entryDy=0;" parent="1" source="_Rgd6yO3huk8bGWKfiVj-5" target="_Rgd6yO3huk8bGWKfiVj-6" edge="1">
                    <mxGeometry relative="1" as="geometry"/>
                </mxCell>
                <mxCell id="_Rgd6yO3huk8bGWKfiVj-5" value="" style="whiteSpace=wrap;html=1;aspect=fixed;" parent="1" vertex="1">
                    <mxGeometry x="-200" y="380" width="80" height="80" as="geometry"/>
                </mxCell>
                <mxCell id="_Rgd6yO3huk8bGWKfiVj-11" style="edgeStyle=orthogonalEdgeStyle;rounded=0;orthogonalLoop=1;jettySize=auto;html=1;exitX=1;exitY=0.5;exitDx=0;exitDy=0;entryX=0;entryY=0.5;entryDx=0;entryDy=0;" parent="1" source="_Rgd6yO3huk8bGWKfiVj-6" target="_Rgd6yO3huk8bGWKfiVj-7" edge="1">
                    <mxGeometry relative="1" as="geometry"/>
                </mxCell>
                <mxCell id="_Rgd6yO3huk8bGWKfiVj-6" value="" style="whiteSpace=wrap;html=1;aspect=fixed;" parent="1" vertex="1">
                    <mxGeometry x="-30" y="380" width="80" height="80" as="geometry"/>
                </mxCell>
                <mxCell id="_Rgd6yO3huk8bGWKfiVj-12" style="rounded=0;orthogonalLoop=1;jettySize=auto;html=1;exitX=1;exitY=0.5;exitDx=0;exitDy=0;entryX=0;entryY=0.5;entryDx=0;entryDy=0;" parent="1" source="_Rgd6yO3huk8bGWKfiVj-7" target="_Rgd6yO3huk8bGWKfiVj-1" edge="1">
                    <mxGeometry relative="1" as="geometry"/>
                </mxCell>
                <mxCell id="_Rgd6yO3huk8bGWKfiVj-13" style="rounded=0;orthogonalLoop=1;jettySize=auto;html=1;exitX=1;exitY=0.5;exitDx=0;exitDy=0;entryX=0;entryY=0.5;entryDx=0;entryDy=0;" parent="1" source="_Rgd6yO3huk8bGWKfiVj-7" target="_Rgd6yO3huk8bGWKfiVj-3" edge="1">
                    <mxGeometry relative="1" as="geometry"/>
                </mxCell>
                <mxCell id="_Rgd6yO3huk8bGWKfiVj-14" style="edgeStyle=none;rounded=0;orthogonalLoop=1;jettySize=auto;html=1;exitX=1;exitY=0.5;exitDx=0;exitDy=0;entryX=-0.015;entryY=0.333;entryDx=0;entryDy=0;entryPerimeter=0;" parent="1" source="_Rgd6yO3huk8bGWKfiVj-7" target="_Rgd6yO3huk8bGWKfiVj-2" edge="1">
                    <mxGeometry relative="1" as="geometry"/>
                </mxCell>
                <mxCell id="_Rgd6yO3huk8bGWKfiVj-15" style="edgeStyle=none;rounded=0;orthogonalLoop=1;jettySize=auto;html=1;exitX=1;exitY=0.5;exitDx=0;exitDy=0;entryX=0;entryY=0.5;entryDx=0;entryDy=0;" parent="1" source="_Rgd6yO3huk8bGWKfiVj-7" target="_Rgd6yO3huk8bGWKfiVj-9" edge="1">
                    <mxGeometry relative="1" as="geometry"/>
                </mxCell>
                <mxCell id="_Rgd6yO3huk8bGWKfiVj-16" style="edgeStyle=none;rounded=0;orthogonalLoop=1;jettySize=auto;html=1;exitX=1;exitY=0.5;exitDx=0;exitDy=0;entryX=0;entryY=0.5;entryDx=0;entryDy=0;" parent="1" source="_Rgd6yO3huk8bGWKfiVj-7" target="_Rgd6yO3huk8bGWKfiVj-8" edge="1">
                    <mxGeometry relative="1" as="geometry"/>
                </mxCell>
                <mxCell id="_Rgd6yO3huk8bGWKfiVj-7" value="" style="whiteSpace=wrap;html=1;aspect=fixed;" parent="1" vertex="1">
                    <mxGeometry x="155" y="380" width="80" height="80" as="geometry"/>
                </mxCell>
                <mxCell id="_Rgd6yO3huk8bGWKfiVj-31" style="edgeStyle=none;rounded=0;orthogonalLoop=1;jettySize=auto;html=1;exitX=1;exitY=0.5;exitDx=0;exitDy=0;entryX=0;entryY=0.5;entryDx=0;entryDy=0;" parent="1" source="_Rgd6yO3huk8bGWKfiVj-8" target="_Rgd6yO3huk8bGWKfiVj-21" edge="1">
                    <mxGeometry relative="1" as="geometry"/>
                </mxCell>
                <mxCell id="_Rgd6yO3huk8bGWKfiVj-8" value="&lt;br&gt;&lt;span style=&quot;color: rgb(0, 0, 0); font-family: Helvetica; font-size: 20px; font-style: normal; font-variant-ligatures: normal; font-variant-caps: normal; font-weight: 400; letter-spacing: normal; orphans: 2; text-align: center; text-indent: 0px; text-transform: none; widows: 2; word-spacing: 0px; -webkit-text-stroke-width: 0px; background-color: rgb(251, 251, 251); text-decoration-thickness: initial; text-decoration-style: initial; text-decoration-color: initial; float: none; display: inline !important;&quot;&gt;$$\xi$$&lt;/span&gt;&lt;br&gt;" style="ellipse;whiteSpace=wrap;html=1;aspect=fixed;" parent="1" vertex="1">
                    <mxGeometry x="390" y="740" width="80" height="80" as="geometry"/>
                </mxCell>
                <mxCell id="_Rgd6yO3huk8bGWKfiVj-28" style="edgeStyle=none;rounded=0;orthogonalLoop=1;jettySize=auto;html=1;exitX=1;exitY=0.5;exitDx=0;exitDy=0;entryX=0;entryY=0.5;entryDx=0;entryDy=0;" parent="1" source="_Rgd6yO3huk8bGWKfiVj-9" target="_Rgd6yO3huk8bGWKfiVj-17" edge="1">
                    <mxGeometry relative="1" as="geometry"/>
                </mxCell>
                <mxCell id="_Rgd6yO3huk8bGWKfiVj-29" style="edgeStyle=none;rounded=0;orthogonalLoop=1;jettySize=auto;html=1;exitX=1;exitY=0.5;exitDx=0;exitDy=0;entryX=0.05;entryY=0.25;entryDx=0;entryDy=0;entryPerimeter=0;" parent="1" source="_Rgd6yO3huk8bGWKfiVj-9" target="_Rgd6yO3huk8bGWKfiVj-21" edge="1">
                    <mxGeometry relative="1" as="geometry"/>
                </mxCell>
                <mxCell id="_Rgd6yO3huk8bGWKfiVj-9" value="&lt;br&gt;&lt;span style=&quot;color: rgb(0, 0, 0); font-family: Helvetica; font-size: 20px; font-style: normal; font-variant-ligatures: normal; font-variant-caps: normal; font-weight: 400; letter-spacing: normal; orphans: 2; text-align: center; text-indent: 0px; text-transform: none; widows: 2; word-spacing: 0px; -webkit-text-stroke-width: 0px; background-color: rgb(251, 251, 251); text-decoration-thickness: initial; text-decoration-style: initial; text-decoration-color: initial; float: none; display: inline !important;&quot;&gt;$$\lambda$$&lt;/span&gt;&lt;br&gt;" style="ellipse;whiteSpace=wrap;html=1;aspect=fixed;" parent="1" vertex="1">
                    <mxGeometry x="390" y="530" width="80" height="80" as="geometry"/>
                </mxCell>
                <mxCell id="_Rgd6yO3huk8bGWKfiVj-17" value="&lt;br&gt;&lt;span style=&quot;color: rgb(0, 0, 0); font-family: Helvetica; font-size: 22px; font-style: normal; font-variant-ligatures: normal; font-variant-caps: normal; font-weight: 400; letter-spacing: normal; orphans: 2; text-align: center; text-indent: 0px; text-transform: none; widows: 2; word-spacing: 0px; -webkit-text-stroke-width: 0px; background-color: rgb(251, 251, 251); text-decoration-thickness: initial; text-decoration-style: initial; text-decoration-color: initial; float: none; display: inline !important;&quot;&gt;G&lt;/span&gt;&lt;span style=&quot;color: rgb(0, 0, 0); font-family: Helvetica; font-style: normal; font-variant-ligatures: normal; font-variant-caps: normal; font-weight: 400; letter-spacing: normal; orphans: 2; text-align: center; text-indent: 0px; text-transform: none; widows: 2; word-spacing: 0px; -webkit-text-stroke-width: 0px; background-color: rgb(251, 251, 251); text-decoration-thickness: initial; text-decoration-style: initial; text-decoration-color: initial; float: none; display: inline !important; font-size: 10px;&quot;&gt;4&lt;/span&gt;&lt;br&gt;" style="ellipse;whiteSpace=wrap;html=1;aspect=fixed;" parent="1" vertex="1">
                    <mxGeometry x="685" y="530" width="80" height="80" as="geometry"/>
                </mxCell>
                <mxCell id="_Rgd6yO3huk8bGWKfiVj-18" value="&lt;br&gt;&lt;span style=&quot;color: rgb(0, 0, 0); font-family: Helvetica; font-size: 22px; font-style: normal; font-variant-ligatures: normal; font-variant-caps: normal; font-weight: 400; letter-spacing: normal; orphans: 2; text-align: center; text-indent: 0px; text-transform: none; widows: 2; word-spacing: 0px; -webkit-text-stroke-width: 0px; background-color: rgb(251, 251, 251); text-decoration-thickness: initial; text-decoration-style: initial; text-decoration-color: initial; float: none; display: inline !important;&quot;&gt;G&lt;/span&gt;&lt;span style=&quot;color: rgb(0, 0, 0); font-family: Helvetica; font-style: normal; font-variant-ligatures: normal; font-variant-caps: normal; font-weight: 400; letter-spacing: normal; orphans: 2; text-align: center; text-indent: 0px; text-transform: none; widows: 2; word-spacing: 0px; -webkit-text-stroke-width: 0px; background-color: rgb(251, 251, 251); text-decoration-thickness: initial; text-decoration-style: initial; text-decoration-color: initial; float: none; display: inline !important; font-size: 10px;&quot;&gt;3&lt;/span&gt;&lt;br&gt;" style="ellipse;whiteSpace=wrap;html=1;aspect=fixed;" parent="1" vertex="1">
                    <mxGeometry x="685" y="430" width="80" height="80" as="geometry"/>
                </mxCell>
                <mxCell id="_Rgd6yO3huk8bGWKfiVj-33" style="edgeStyle=none;rounded=0;orthogonalLoop=1;jettySize=auto;html=1;exitX=1;exitY=0.5;exitDx=0;exitDy=0;entryX=0.025;entryY=0.263;entryDx=0;entryDy=0;entryPerimeter=0;" parent="1" source="_Rgd6yO3huk8bGWKfiVj-19" target="_Rgd6yO3huk8bGWKfiVj-4" edge="1">
                    <mxGeometry relative="1" as="geometry">
                        <mxPoint x="895" y="420" as="targetPoint"/>
                    </mxGeometry>
                </mxCell>
                <mxCell id="_Rgd6yO3huk8bGWKfiVj-19" value="&lt;br&gt;&lt;span style=&quot;color: rgb(0, 0, 0); font-family: Helvetica; font-size: 22px; font-style: normal; font-variant-ligatures: normal; font-variant-caps: normal; font-weight: 400; letter-spacing: normal; orphans: 2; text-align: center; text-indent: 0px; text-transform: none; widows: 2; word-spacing: 0px; -webkit-text-stroke-width: 0px; background-color: rgb(251, 251, 251); text-decoration-thickness: initial; text-decoration-style: initial; text-decoration-color: initial; float: none; display: inline !important;&quot;&gt;G&lt;/span&gt;&lt;span style=&quot;color: rgb(0, 0, 0); font-family: Helvetica; font-style: normal; font-variant-ligatures: normal; font-variant-caps: normal; font-weight: 400; letter-spacing: normal; orphans: 2; text-align: center; text-indent: 0px; text-transform: none; widows: 2; word-spacing: 0px; -webkit-text-stroke-width: 0px; background-color: rgb(251, 251, 251); text-decoration-thickness: initial; text-decoration-style: initial; text-decoration-color: initial; float: none; display: inline !important; font-size: 15px;&quot;&gt;2&lt;/span&gt;" style="ellipse;whiteSpace=wrap;html=1;aspect=fixed;" parent="1" vertex="1">
                    <mxGeometry x="680" y="170" width="80" height="80" as="geometry"/>
                </mxCell>
                <mxCell id="_Rgd6yO3huk8bGWKfiVj-20" value="&lt;font style=&quot;font-size: 22px;&quot;&gt;G&lt;sub style=&quot;&quot;&gt;1&lt;/sub&gt;&lt;/font&gt;" style="ellipse;whiteSpace=wrap;html=1;aspect=fixed;" parent="1" vertex="1">
                    <mxGeometry x="685" y="-50" width="80" height="80" as="geometry"/>
                </mxCell>
                <mxCell id="_Rgd6yO3huk8bGWKfiVj-36" style="edgeStyle=none;rounded=0;orthogonalLoop=1;jettySize=auto;html=1;exitX=0.75;exitY=0.075;exitDx=0;exitDy=0;exitPerimeter=0;" parent="1" source="_Rgd6yO3huk8bGWKfiVj-21" edge="1">
                    <mxGeometry relative="1" as="geometry">
                        <mxPoint x="920" y="440" as="targetPoint"/>
                    </mxGeometry>
                </mxCell>
                <mxCell id="_Rgd6yO3huk8bGWKfiVj-21" value="&lt;br&gt;&lt;span style=&quot;color: rgb(0, 0, 0); font-family: Helvetica; font-size: 22px; font-style: normal; font-variant-ligatures: normal; font-variant-caps: normal; font-weight: 400; letter-spacing: normal; orphans: 2; text-align: center; text-indent: 0px; text-transform: none; widows: 2; word-spacing: 0px; -webkit-text-stroke-width: 0px; background-color: rgb(251, 251, 251); text-decoration-thickness: initial; text-decoration-style: initial; text-decoration-color: initial; float: none; display: inline !important;&quot;&gt;G&lt;/span&gt;&lt;span style=&quot;color: rgb(0, 0, 0); font-family: Helvetica; font-style: normal; font-variant-ligatures: normal; font-variant-caps: normal; font-weight: 400; letter-spacing: normal; orphans: 2; text-align: center; text-indent: 0px; text-transform: none; widows: 2; word-spacing: 0px; -webkit-text-stroke-width: 0px; background-color: rgb(251, 251, 251); text-decoration-thickness: initial; text-decoration-style: initial; text-decoration-color: initial; float: none; display: inline !important; font-size: 10px;&quot;&gt;5&lt;/span&gt;&lt;br&gt;" style="ellipse;whiteSpace=wrap;html=1;aspect=fixed;" parent="1" vertex="1">
                    <mxGeometry x="685" y="740" width="80" height="80" as="geometry"/>
                </mxCell>
                <mxCell id="_Rgd6yO3huk8bGWKfiVj-30" style="edgeStyle=none;rounded=0;orthogonalLoop=1;jettySize=auto;html=1;exitX=1;exitY=0.5;exitDx=0;exitDy=0;entryX=0.088;entryY=0.725;entryDx=0;entryDy=0;entryPerimeter=0;" parent="1" source="_Rgd6yO3huk8bGWKfiVj-8" target="_Rgd6yO3huk8bGWKfiVj-17" edge="1">
                    <mxGeometry relative="1" as="geometry"/>
                </mxCell>
                <mxCell id="_Rgd6yO3huk8bGWKfiVj-34" style="edgeStyle=none;rounded=0;orthogonalLoop=1;jettySize=auto;html=1;exitX=1;exitY=0.5;exitDx=0;exitDy=0;entryX=0;entryY=0.5;entryDx=0;entryDy=0;" parent="1" source="_Rgd6yO3huk8bGWKfiVj-18" target="_Rgd6yO3huk8bGWKfiVj-4" edge="1">
                    <mxGeometry relative="1" as="geometry">
                        <mxPoint x="894.04" y="429.03999999999996" as="targetPoint"/>
                    </mxGeometry>
                </mxCell>
                <mxCell id="_Rgd6yO3huk8bGWKfiVj-35" style="edgeStyle=none;rounded=0;orthogonalLoop=1;jettySize=auto;html=1;exitX=1.013;exitY=0.319;exitDx=0;exitDy=0;exitPerimeter=0;" parent="1" source="_Rgd6yO3huk8bGWKfiVj-17" edge="1">
                    <mxGeometry relative="1" as="geometry">
                        <mxPoint x="910" y="420" as="targetPoint"/>
                    </mxGeometry>
                </mxCell>
                <mxCell id="_Rgd6yO3huk8bGWKfiVj-37" value="&lt;font style=&quot;font-size: 19px;&quot;&gt;Output layer&lt;/font&gt;" style="text;html=1;strokeColor=none;fillColor=none;align=center;verticalAlign=middle;whiteSpace=wrap;rounded=0;" parent="1" vertex="1">
                    <mxGeometry x="165" y="405" width="60" height="30" as="geometry"/>
                </mxCell>
                <mxCell id="_Rgd6yO3huk8bGWKfiVj-38" value="&lt;font style=&quot;font-size: 19px;&quot;&gt;Hidden layers&lt;/font&gt;" style="text;html=1;strokeColor=none;fillColor=none;align=center;verticalAlign=middle;whiteSpace=wrap;rounded=0;" parent="1" vertex="1">
                    <mxGeometry x="-20" y="405" width="60" height="30" as="geometry"/>
                </mxCell>
                <mxCell id="_Rgd6yO3huk8bGWKfiVj-39" value="&lt;font style=&quot;font-size: 19px;&quot;&gt;Input layer&lt;/font&gt;" style="text;html=1;strokeColor=none;fillColor=none;align=center;verticalAlign=middle;whiteSpace=wrap;rounded=0;" parent="1" vertex="1">
                    <mxGeometry x="-190" y="400" width="60" height="30" as="geometry"/>
                </mxCell>
                <mxCell id="_Rgd6yO3huk8bGWKfiVj-40" style="edgeStyle=none;rounded=0;orthogonalLoop=1;jettySize=auto;html=1;exitX=1;exitY=1;exitDx=0;exitDy=0;entryX=0.25;entryY=0.075;entryDx=0;entryDy=0;entryPerimeter=0;" parent="1" source="_Rgd6yO3huk8bGWKfiVj-20" target="_Rgd6yO3huk8bGWKfiVj-4" edge="1">
                    <mxGeometry relative="1" as="geometry"/>
                </mxCell>
                <mxCell id="_Rgd6yO3huk8bGWKfiVj-41" value="&lt;font style=&quot;font-size: 15px;&quot;&gt;$$\frac{\partial E}{\partial G_2&lt;br&gt;}$$&lt;/font&gt;" style="text;html=1;align=center;verticalAlign=middle;resizable=0;points=[];autosize=1;strokeColor=none;fillColor=none;" parent="1" vertex="1">
                    <mxGeometry x="685" y="290" width="220" height="50" as="geometry"/>
                </mxCell>
                <mxCell id="_Rgd6yO3huk8bGWKfiVj-42" value="&lt;font style=&quot;font-size: 15px;&quot;&gt;$$\frac{\partial E}{\partial G_3&lt;br&gt;}$$&lt;/font&gt;" style="text;html=1;align=center;verticalAlign=middle;resizable=0;points=[];autosize=1;strokeColor=none;fillColor=none;" parent="1" vertex="1">
                    <mxGeometry x="685" y="380" width="220" height="50" as="geometry"/>
                </mxCell>
                <mxCell id="_Rgd6yO3huk8bGWKfiVj-43" value="&lt;font style=&quot;font-size: 15px;&quot;&gt;$$\frac{\partial E}{\partial G_4&lt;br&gt;}$$&lt;/font&gt;" style="text;html=1;align=center;verticalAlign=middle;resizable=0;points=[];autosize=1;strokeColor=none;fillColor=none;" parent="1" vertex="1">
                    <mxGeometry x="685" y="460" width="220" height="50" as="geometry"/>
                </mxCell>
                <mxCell id="_Rgd6yO3huk8bGWKfiVj-44" value="&lt;font style=&quot;font-size: 15px;&quot;&gt;$$\frac{\partial E}{\partial G_5&lt;br&gt;}$$&lt;/font&gt;" style="text;html=1;align=center;verticalAlign=middle;resizable=0;points=[];autosize=1;strokeColor=none;fillColor=none;" parent="1" vertex="1">
                    <mxGeometry x="685" y="570" width="220" height="50" as="geometry"/>
                </mxCell>
                <mxCell id="_Rgd6yO3huk8bGWKfiVj-46" value="&lt;font style=&quot;font-size: 15px;&quot;&gt;$$\frac{\partial E}{\partial G_2&lt;br&gt;} \frac{\partial G_2}{\partial \eta&lt;br style=&quot;border-color: var(--border-color);&quot;&gt;}&amp;nbsp;&lt;br&gt;$$&lt;/font&gt;" style="text;html=1;align=center;verticalAlign=middle;resizable=0;points=[];autosize=1;strokeColor=none;fillColor=none;" parent="1" vertex="1">
                    <mxGeometry x="480" y="130" width="230" height="90" as="geometry"/>
                </mxCell>
                <mxCell id="_Rgd6yO3huk8bGWKfiVj-47" value="&lt;font style=&quot;font-size: 15px;&quot;&gt;$$\frac{\partial E}{\partial G_5&lt;br&gt;} \frac{\partial G_5}{\partial \xi&lt;br style=&quot;border-color: var(--border-color);&quot;&gt;}&amp;nbsp;&lt;br&gt;$$&lt;/font&gt;" style="text;html=1;align=center;verticalAlign=middle;resizable=0;points=[];autosize=1;strokeColor=none;fillColor=none;" parent="1" vertex="1">
                    <mxGeometry x="455" y="770" width="220" height="90" as="geometry"/>
                </mxCell>
                <mxCell id="_Rgd6yO3huk8bGWKfiVj-48" value="&lt;font style=&quot;font-size: 15px;&quot;&gt;$$\frac{\partial E}{\partial G_2&lt;br&gt;} \frac{\partial G_2}{\partial r_s&lt;br style=&quot;border-color: var(--border-color);&quot;&gt;}&amp;nbsp;&lt;br&gt;$$&lt;/font&gt;" style="text;html=1;align=center;verticalAlign=middle;resizable=0;points=[];autosize=1;strokeColor=none;fillColor=none;" parent="1" vertex="1">
                    <mxGeometry x="495" y="250" width="220" height="90" as="geometry"/>
                </mxCell>
                <mxCell id="_Rgd6yO3huk8bGWKfiVj-49" value="&lt;font style=&quot;font-size: 15px;&quot;&gt;$$\frac{\partial E}{\partial G_4&lt;br&gt;} \frac{\partial G_4}{\partial \eta&lt;br style=&quot;border-color: var(--border-color);&quot;&gt;}&amp;nbsp;&lt;br&gt;$$&lt;/font&gt;" style="text;html=1;align=center;verticalAlign=middle;resizable=0;points=[];autosize=1;strokeColor=none;fillColor=none;" parent="1" vertex="1">
                    <mxGeometry x="530" y="340" width="230" height="90" as="geometry"/>
                </mxCell>
                <mxCell id="_Rgd6yO3huk8bGWKfiVj-50" value="&lt;font style=&quot;font-size: 15px;&quot;&gt;$$\frac{\partial E}{\partial G_5&lt;br&gt;} \frac{\partial G_5}{\partial \eta&lt;br style=&quot;border-color: var(--border-color);&quot;&gt;}&amp;nbsp;&lt;br&gt;$$&lt;/font&gt;" style="text;html=1;align=center;verticalAlign=middle;resizable=0;points=[];autosize=1;strokeColor=none;fillColor=none;" parent="1" vertex="1">
                    <mxGeometry x="390" y="355" width="230" height="90" as="geometry"/>
                </mxCell>
                <mxCell id="_Rgd6yO3huk8bGWKfiVj-51" value="&lt;i&gt;&lt;font style=&quot;font-size: 20px;&quot;&gt;= const&lt;/font&gt;&lt;/i&gt;" style="text;html=1;align=center;verticalAlign=middle;resizable=0;points=[];autosize=1;strokeColor=none;fillColor=none;" parent="1" vertex="1">
                    <mxGeometry x="810" y="130" width="90" height="40" as="geometry"/>
                </mxCell>
                <mxCell id="_Rgd6yO3huk8bGWKfiVj-52" value="&lt;font style=&quot;font-size: 15px;&quot;&gt;$$\frac{\partial E}{\partial G_4&lt;br&gt;} \frac{\partial G_4}{\partial \lambda&lt;br style=&quot;border-color: var(--border-color);&quot;&gt;}&amp;nbsp;&lt;br&gt;$$&lt;/font&gt;" style="text;html=1;align=center;verticalAlign=middle;resizable=0;points=[];autosize=1;strokeColor=none;fillColor=none;" parent="1" vertex="1">
                    <mxGeometry x="415" y="495" width="260" height="90" as="geometry"/>
                </mxCell>
                <mxCell id="_Rgd6yO3huk8bGWKfiVj-53" value="&lt;font style=&quot;font-size: 15px;&quot;&gt;$$\frac{\partial E}{\partial G_5&lt;br&gt;} \frac{\partial G_5}{\partial \lambda&lt;br style=&quot;border-color: var(--border-color);&quot;&gt;}&amp;nbsp;&lt;br&gt;$$&lt;/font&gt;" style="text;html=1;align=center;verticalAlign=middle;resizable=0;points=[];autosize=1;strokeColor=none;fillColor=none;" parent="1" vertex="1">
                    <mxGeometry x="455" y="570" width="260" height="90" as="geometry"/>
                </mxCell>
                <mxCell id="_Rgd6yO3huk8bGWKfiVj-54" value="&lt;font style=&quot;font-size: 15px;&quot;&gt;$$\frac{\partial E}{\partial G_4&lt;br&gt;} \frac{\partial G_4}{\partial \xi&lt;br style=&quot;border-color: var(--border-color);&quot;&gt;}&amp;nbsp;&lt;br&gt;$$&lt;/font&gt;" style="text;html=1;align=center;verticalAlign=middle;resizable=0;points=[];autosize=1;strokeColor=none;fillColor=none;" parent="1" vertex="1">
                    <mxGeometry x="465" y="690" width="220" height="90" as="geometry"/>
                </mxCell>
                <mxCell id="_Rgd6yO3huk8bGWKfiVj-57" value="&lt;font style=&quot;font-size: 15px;&quot;&gt;$$Error_{\eta} = \frac{\partial E}{\partial G_2} \frac{\partial G_2}{\partial \eta&lt;br style=&quot;border-color: var(--border-color);&quot;&gt;} + \frac{\partial E}{\partial G_4} \frac{\partial G_4}{\partial \eta&lt;br style=&quot;border-color: var(--border-color);&quot;&gt;} + \frac{\partial E}{\partial G_5} \frac{\partial G_5}{\partial \eta&lt;br style=&quot;border-color: var(--border-color);&quot;&gt;}&lt;br&gt;&amp;nbsp;$$&lt;/font&gt;" style="text;html=1;align=center;verticalAlign=middle;resizable=0;points=[];autosize=1;strokeColor=none;fillColor=none;" parent="1" vertex="1">
                    <mxGeometry x="-160" y="823" width="520" height="100" as="geometry"/>
                </mxCell>
                <mxCell id="_Rgd6yO3huk8bGWKfiVj-58" value="&lt;font style=&quot;font-size: 15px;&quot;&gt;$$Error_{r_s} = \frac{\partial E}{\partial G_2} \frac{\partial G_2}{\partial r_s&lt;br style=&quot;border-color: var(--border-color);&quot;&gt;}&amp;nbsp;$$&lt;/font&gt;" style="text;html=1;align=center;verticalAlign=middle;resizable=0;points=[];autosize=1;strokeColor=none;fillColor=none;" parent="1" vertex="1">
                    <mxGeometry x="-155" y="910" width="510" height="50" as="geometry"/>
                </mxCell>
                <mxCell id="_Rgd6yO3huk8bGWKfiVj-59" value="&lt;font style=&quot;font-size: 15px;&quot;&gt;$$Error_{k} = \frac{\partial E}{\partial G_3} \frac{\partial G_3}{\partial k&lt;br style=&quot;border-color: var(--border-color);&quot;&gt;}&amp;nbsp;$$&lt;/font&gt;" style="text;html=1;align=center;verticalAlign=middle;resizable=0;points=[];autosize=1;strokeColor=none;fillColor=none;" parent="1" vertex="1">
                    <mxGeometry x="-145" y="980" width="490" height="50" as="geometry"/>
                </mxCell>
                <mxCell id="_Rgd6yO3huk8bGWKfiVj-62" value="&lt;font style=&quot;font-size: 15px;&quot;&gt;$$Error_{\lambda} = \frac{\partial E}{\partial G_4} \frac{\partial G_4}{\partial \lambda&lt;br style=&quot;border-color: var(--border-color);&quot;&gt;} + \frac{\partial E}{\partial G_5} \frac{\partial G_5}{\partial \lambda&lt;br style=&quot;border-color: var(--border-color);&quot;&gt;}&lt;br&gt;&amp;nbsp;$$&lt;/font&gt;" style="text;html=1;align=center;verticalAlign=middle;resizable=0;points=[];autosize=1;strokeColor=none;fillColor=none;" parent="1" vertex="1">
                    <mxGeometry x="155" y="833" width="580" height="90" as="geometry"/>
                </mxCell>
                <mxCell id="_Rgd6yO3huk8bGWKfiVj-64" value="&lt;font style=&quot;font-size: 15px;&quot;&gt;$$Error_{\xi} = \frac{\partial E}{\partial G_4} \frac{\partial G_4}{\partial \xi&lt;br style=&quot;border-color: var(--border-color);&quot;&gt;} + \frac{\partial E}{\partial G_5} \frac{\partial G_5}{\partial \xi&lt;br style=&quot;border-color: var(--border-color);&quot;&gt;}&lt;br&gt;&amp;nbsp;$$&lt;/font&gt;" style="text;html=1;align=center;verticalAlign=middle;resizable=0;points=[];autosize=1;strokeColor=none;fillColor=none;" parent="1" vertex="1">
                    <mxGeometry x="170" y="970" width="500" height="90" as="geometry"/>
                </mxCell>
                <mxCell id="_Rgd6yO3huk8bGWKfiVj-65" value="$$Error_{\eta}$$" style="text;html=1;align=center;verticalAlign=middle;resizable=0;points=[];autosize=1;strokeColor=none;fillColor=none;fontSize=17;" parent="1" vertex="1">
                    <mxGeometry x="230" y="205" width="150" height="30" as="geometry"/>
                </mxCell>
                <mxCell id="_Rgd6yO3huk8bGWKfiVj-66" value="$$Error_{r_s}$$" style="text;html=1;align=center;verticalAlign=middle;resizable=0;points=[];autosize=1;strokeColor=none;fillColor=none;fontSize=17;" parent="1" vertex="1">
                    <mxGeometry x="270" y="325" width="140" height="30" as="geometry"/>
                </mxCell>
                <mxCell id="_Rgd6yO3huk8bGWKfiVj-67" value="$$Error_{k}$$" style="text;html=1;align=center;verticalAlign=middle;resizable=0;points=[];autosize=1;strokeColor=none;fillColor=none;fontSize=17;" parent="1" vertex="1">
                    <mxGeometry x="290" y="415" width="130" height="30" as="geometry"/>
                </mxCell>
                <mxCell id="_Rgd6yO3huk8bGWKfiVj-68" value="$$Error_{\lambda}$$" style="text;html=1;align=center;verticalAlign=middle;resizable=0;points=[];autosize=1;strokeColor=none;fillColor=none;fontSize=17;" parent="1" vertex="1">
                    <mxGeometry x="265" y="480" width="180" height="30" as="geometry"/>
                </mxCell>
                <mxCell id="_Rgd6yO3huk8bGWKfiVj-69" value="$$Error_{\xi}$$" style="text;html=1;align=center;verticalAlign=middle;resizable=0;points=[];autosize=1;strokeColor=none;fillColor=none;fontSize=17;" parent="1" vertex="1">
                    <mxGeometry x="290" y="610" width="140" height="30" as="geometry"/>
                </mxCell>
                <mxCell id="23" style="edgeStyle=none;html=1;fontSize=16;" parent="1" source="9" target="20" edge="1">
                    <mxGeometry relative="1" as="geometry"/>
                </mxCell>
                <mxCell id="9" value="&lt;b&gt;F&lt;/b&gt;" style="ellipse;whiteSpace=wrap;html=1;fontSize=18;" parent="1" vertex="1">
                    <mxGeometry x="1100" y="360" width="80" height="80" as="geometry"/>
                </mxCell>
                <mxCell id="11" value="$$\frac{\partial E}{\partial G_i&lt;br&gt;}$$" style="text;align=center;verticalAlign=middle;resizable=0;points=[];autosize=1;strokeColor=none;fillColor=none;fontSize=18;html=1;" parent="1" vertex="1">
                    <mxGeometry x="900" y="400" width="250" height="60" as="geometry"/>
                </mxCell>
                <mxCell id="14" style="edgeStyle=none;html=1;exitX=0.75;exitY=0;exitDx=0;exitDy=0;entryX=0;entryY=1;entryDx=0;entryDy=0;fontSize=16;" parent="1" source="12" target="9" edge="1">
                    <mxGeometry relative="1" as="geometry"/>
                </mxCell>
                <mxCell id="12" value="Build-in $$\frac{\partial G_i}{\partial R_i&lt;br&gt;}$$&amp;nbsp;" style="fontSize=18;html=1;whiteSpace=wrap;textDirection=ltr;verticalAlign=middle;" parent="1" vertex="1">
                    <mxGeometry x="920" y="520" width="90" height="80" as="geometry"/>
                </mxCell>
                <mxCell id="15" value="$$\nabla E$$" style="text;html=1;align=center;verticalAlign=middle;resizable=0;points=[];autosize=1;strokeColor=none;fillColor=none;fontSize=16;" parent="1" vertex="1">
                    <mxGeometry x="965" y="365" width="120" height="30" as="geometry"/>
                </mxCell>
                <mxCell id="20" value="&lt;b&gt;Loss&lt;/b&gt;" style="rhombus;whiteSpace=wrap;html=1;fontSize=16;" parent="1" vertex="1">
                    <mxGeometry x="1005" y="220" width="80" height="80" as="geometry"/>
                </mxCell>
                <mxCell id="27" style="edgeStyle=none;html=1;exitX=1;exitY=0.5;exitDx=0;exitDy=0;entryX=0;entryY=0.5;entryDx=0;entryDy=0;fontSize=18;" edge="1" parent="1" source="25" target="_Rgd6yO3huk8bGWKfiVj-5">
                    <mxGeometry relative="1" as="geometry"/>
                </mxCell>
                <mxCell id="25" value="&lt;font style=&quot;font-size: 18px;&quot;&gt;One structure&lt;/font&gt;" style="whiteSpace=wrap;html=1;" vertex="1" parent="1">
                    <mxGeometry x="-400" y="390" width="120" height="60" as="geometry"/>
                </mxCell>
            </root>
        </mxGraphModel>
    </diagram>
</mxfile>